<svg width="25" height="26" viewBox="0 0 25 26" fill="none" xmlns="http://www.w3.org/2000/svg">
<path d="M23.9025 0.0490112H1.1345C0.508601 0.0490112 0 0.558021 0 1.18402V23.924C0 24.589 0.508601 25.098 1.1345 25.098H23.8634C24.4893 25.098 24.9979 24.589 24.9979 23.963V1.18402C25.037 0.558021 24.5284 0.0490112 23.9025 0.0490112ZM1.1345 0.832016H23.8634C24.0981 0.832016 24.2546 0.988021 24.2546 1.18402V5.01903H0.7824V1.18402C0.7824 0.988021 0.938901 0.832016 1.1345 0.832016ZM23.9025 24.315H1.1345C0.938901 24.315 0.7824 24.158 0.7824 23.963V5.80202H24.2546V23.924C24.2546 24.158 24.0981 24.315 23.9025 24.315Z" fill="#434343"/>
<path d="M21.9471 4.159C22.6122 4.159 23.1598 3.611 23.1598 2.946C23.1598 2.28 22.6122 1.73199 21.9471 1.73199C21.2821 1.73199 20.7344 2.28 20.7344 2.946C20.7344 3.611 21.2821 4.159 21.9471 4.159ZM21.9471 2.515C22.1818 2.515 22.3774 2.711 22.3774 2.946C22.3774 3.181 22.1818 3.37601 21.9471 3.37601C21.7124 3.37601 21.5168 3.181 21.5168 2.946C21.5168 2.711 21.7124 2.515 21.9471 2.515Z" fill="#434343"/>
<path d="M18.3885 4.159C19.0536 4.159 19.6012 3.611 19.6012 2.946C19.6012 2.28 19.0536 1.73199 18.3885 1.73199C17.7235 1.73199 17.1758 2.28 17.1758 2.946C17.1758 3.611 17.7235 4.159 18.3885 4.159ZM18.3885 2.515C18.6232 2.515 18.8188 2.711 18.8188 2.946C18.8188 3.181 18.6232 3.37601 18.3885 3.37601C18.1538 3.37601 17.9582 3.181 17.9582 2.946C17.9582 2.711 18.1538 2.515 18.3885 2.515Z" fill="#434343"/>
<path d="M2.27011 3.33598H15.6493C15.884 3.33598 16.0405 3.17999 16.0405 2.94499C16.0405 2.70899 15.884 2.55298 15.6493 2.55298H2.27011C2.03541 2.55298 1.87891 2.70899 1.87891 2.94499C1.87891 3.17999 2.07451 3.33598 2.27011 3.33598Z" fill="#434343"/>
<path d="M19.4429 20.831H5.98553V8.93301C5.98553 8.69801 5.82903 8.54199 5.59433 8.54199C5.35963 8.54199 5.20312 8.69801 5.20312 8.93301V21.223C5.20312 21.457 5.35963 21.614 5.59433 21.614H19.4429C19.6776 21.614 19.8341 21.457 19.8341 21.223C19.8341 20.988 19.6776 20.831 19.4429 20.831Z" fill="#434343"/>
<path d="M17.7584 13.436C17.5237 13.436 17.3672 13.592 17.3672 13.827V19.306C17.3672 19.541 17.5237 19.698 17.7584 19.698C17.9931 19.698 18.1496 19.541 18.1496 19.306V13.827C18.1496 13.592 17.9931 13.436 17.7584 13.436Z" fill="#434343"/>
<path d="M15.1803 15.08C14.9455 15.08 14.7891 15.237 14.7891 15.471V19.307C14.7891 19.542 14.9455 19.698 15.1803 19.698C15.415 19.698 15.5715 19.542 15.5715 19.307V15.471C15.5715 15.276 15.415 15.08 15.1803 15.08Z" fill="#434343"/>
<path d="M12.6373 15.978C12.4026 15.978 12.2461 16.134 12.2461 16.369V19.304C12.2461 19.539 12.4026 19.696 12.6373 19.696C12.872 19.696 13.0285 19.539 13.0285 19.304V16.369C13.0285 16.173 12.8329 15.978 12.6373 15.978Z" fill="#434343"/>
<path d="M9.66412 14.178V19.344C9.66412 19.579 9.82052 19.735 10.0553 19.735C10.29 19.735 10.4465 19.579 10.4465 19.344V14.178C10.4465 13.943 10.29 13.786 10.0553 13.786C9.82052 13.786 9.66412 13.943 9.66412 14.178Z" fill="#434343"/>
<path d="M7.47323 19.697C7.70803 19.697 7.86443 19.54 7.86443 19.305V16.957C7.86443 16.722 7.70803 16.565 7.47323 16.565C7.23853 16.565 7.08203 16.722 7.08203 16.957V19.305C7.08203 19.54 7.27763 19.697 7.47323 19.697Z" fill="#434343"/>
<path d="M7.47107 15.468C7.58837 15.468 7.66667 15.429 7.74487 15.35L10.0921 12.806L12.4002 14.411C12.4785 14.489 12.5958 14.489 12.7132 14.489C12.8305 14.45 12.9088 14.372 12.9479 14.294L13.6912 12.845L14.9039 13.941C14.9822 14.02 15.0995 14.059 15.2169 14.059C15.3342 14.059 15.4125 13.981 15.4907 13.902L17.3294 11.476L17.3685 12.024C17.3685 12.219 17.5641 12.415 17.7988 12.376C18.0335 12.376 18.19 12.18 18.1509 11.945L18.0335 10.38C18.0335 10.145 17.8379 9.988 17.6032 10.027L16.0384 10.145C15.8037 10.145 15.6472 10.341 15.6863 10.575C15.6863 10.81 15.8819 10.967 16.1166 10.928L16.8208 10.889L15.1386 13.119L13.8868 11.984C13.8085 11.906 13.6912 11.867 13.5738 11.906C13.4565 11.945 13.3391 11.984 13.3 12.102L12.5176 13.589L10.3268 12.063C10.1704 11.945 9.93557 11.984 9.81827 12.102L7.23627 14.92C7.07987 15.076 7.11897 15.311 7.27547 15.468C7.27547 15.429 7.39277 15.468 7.47107 15.468Z" fill="#434343"/>
</svg>
