<svg width="31" height="26" viewBox="0 0 31 26" fill="none" xmlns="http://www.w3.org/2000/svg">
<path d="M26.2898 15.195C26.0752 15.195 25.8568 15.216 25.6418 15.258C24.9392 15.392 24.3401 15.737 23.8617 16.281C23.7264 16.435 23.6099 16.594 23.5094 16.753C23.4017 16.675 23.2775 16.605 23.1543 16.536V13.374C23.4365 13.411 23.7443 13.439 24.0767 13.439C24.5024 13.439 24.9112 13.396 25.3248 13.306L27.7273 12.787C28.3685 12.649 28.8947 12.212 29.1334 11.62C29.274 11.273 29.302 10.905 29.2218 10.553C29.5982 10.122 29.7649 9.526 29.6388 8.944C29.6379 8.939 29.6369 8.935 29.6359 8.931C29.8983 8.635 30.0607 8.25701 30.0916 7.84601C30.1254 7.39601 29.9988 6.96201 29.7413 6.61301C29.807 6.29301 29.7881 5.95701 29.6813 5.64001C29.4301 4.89801 28.7067 4.39999 27.8809 4.39999C27.7398 4.39999 27.5983 4.415 27.4606 4.444L25.5379 4.85999C25.5147 4.24199 25.4161 3.61399 25.3577 3.35999C25.1257 2.34199 24.1985 1.60299 23.1485 1.59399C23.1205 0.710994 22.3981 0 21.5085 0H8.49008C7.58318 0 6.84528 0.737989 6.84528 1.64499V7.513C6.77138 7.545 6.70039 7.572 6.63509 7.586C6.25629 7.667 5.94128 7.644 5.51698 7.595L4.05388 6.65201C3.89248 6.54801 3.69678 6.51301 3.50788 6.55301C3.31988 6.59301 3.15608 6.70701 3.05168 6.86801L0.115784 11.422C-0.101116 11.759 -0.00451618 12.208 0.332284 12.425L1.83068 13.391C1.91718 13.505 2.00418 13.629 2.09738 13.763C2.50718 14.356 3.06818 15.167 4.09638 15.83L6.16158 17.162C6.37228 17.297 6.60468 17.387 6.84528 17.436V24.355C6.84528 25.262 7.58318 26 8.49008 26H21.5095C22.213 26 22.8102 25.554 23.0451 24.931C23.0818 24.952 23.1166 24.972 23.1543 24.993C23.5756 25.231 24.0545 25.503 24.5435 25.787C24.7034 25.884 24.888 25.936 25.0769 25.936C25.1417 25.936 25.2064 25.929 25.2731 25.917C25.5249 25.869 25.7476 25.731 25.8989 25.534C26.2535 25.08 26.5961 24.649 26.9068 24.263C28.7546 21.953 30.0896 20.284 29.6862 18.191C29.347 16.427 27.95 15.195 26.2898 15.195ZM21.1094 11.892L20.6581 11.99L19.8202 8.10999L20.271 8.01199L21.1094 11.892ZM23.9458 3.68301C24.0646 4.20201 24.1453 5.28 24.0598 5.56C23.9849 5.806 24.0458 6.07299 24.2197 6.26199C24.3937 6.45199 24.6546 6.53301 24.9064 6.48001L27.7679 5.862C27.9626 5.819 28.2356 5.88901 28.3086 6.10501C28.3593 6.25701 28.3115 6.37801 28.2781 6.43701C28.096 6.75801 28.1839 7.16401 28.4825 7.38101C28.6458 7.50001 28.6516 7.669 28.6463 7.737C28.6415 7.804 28.6106 7.97001 28.4323 8.06201C28.2491 8.15601 28.1148 8.32499 28.0631 8.52499C28.0119 8.72499 28.0481 8.93701 28.1631 9.10901C28.1916 9.15101 28.2115 9.19799 28.2221 9.24799C28.2603 9.42499 28.1747 9.60701 28.0148 9.69101C27.8317 9.78501 27.6983 9.95402 27.6466 10.153C27.5959 10.354 27.6321 10.566 27.7466 10.737C27.821 10.848 27.836 10.963 27.7896 11.077C27.7312 11.221 27.5901 11.333 27.4209 11.37L25.019 11.889C24.7068 11.956 24.399 11.989 24.0772 11.989C23.5723 11.989 23.1147 11.906 22.7107 11.832C22.6643 11.823 22.6194 11.815 22.5744 11.807L21.6298 7.436C21.9308 7.189 22.2212 6.91501 22.5097 6.46701C23.0697 5.59801 23.12 4.06599 22.975 3.05499C23.4157 2.97399 23.8501 3.26201 23.9458 3.68301ZM3.87748 8.263L4.26498 8.513L3.88568 9.10101L2.11428 11.849L1.72678 11.599L3.87748 8.263ZM4.88158 14.611C4.09588 14.105 3.66728 13.485 3.28948 12.939C3.26288 12.9 3.23628 12.862 3.21018 12.825L5.34978 9.505L5.63248 9.06601C6.04418 9.10601 6.48578 9.10099 6.94048 9.00299C7.25938 8.93399 7.58799 8.77699 7.90889 8.57599C7.94069 8.55899 7.97168 8.54101 8.00018 8.51901C8.66258 8.08401 9.28068 7.45401 9.68118 6.91901C10.0499 7.17301 10.1596 7.67499 9.92379 8.04999C9.64109 8.50099 8.93608 9.32001 8.67758 9.45801C8.45048 9.57801 8.30458 9.80999 8.29398 10.067C8.28328 10.324 8.40948 10.568 8.62538 10.707L11.0864 12.293C11.2888 12.424 11.3831 12.673 11.2966 12.847C11.2255 12.991 11.1057 13.042 11.041 13.06C10.6853 13.158 10.4597 13.507 10.5176 13.872C10.5413 14.023 10.4819 14.13 10.4278 14.194C10.3495 14.285 10.2384 14.338 10.1238 14.338C10.0833 14.338 10.0417 14.331 10.0001 14.318C9.80298 14.256 9.58888 14.279 9.41158 14.385C9.23378 14.491 9.10908 14.666 9.06948 14.869C9.05938 14.919 9.04048 14.966 9.01298 15.009C8.91678 15.158 8.72259 15.227 8.55389 15.175C8.35769 15.113 8.14368 15.137 7.96638 15.243C7.78898 15.348 7.66438 15.523 7.62428 15.725C7.56968 16.001 7.33529 16.031 7.23769 16.031C7.13619 16.031 7.03518 16.001 6.94628 15.943L4.88158 14.611ZM21.7047 24.355C21.7047 24.463 21.6167 24.55 21.5095 24.55H8.49008C8.38238 24.55 8.29488 24.462 8.29488 24.355V17.155C8.49348 17.018 8.66458 16.844 8.79498 16.639C9.38068 16.601 9.91169 16.292 10.2316 15.795C10.234 15.791 10.2364 15.788 10.2384 15.785C10.7356 15.754 11.2014 15.521 11.5309 15.136C11.7556 14.873 11.8991 14.555 11.9513 14.22C12.2243 14.041 12.449 13.79 12.5973 13.49C13.0134 12.647 12.7017 11.608 11.873 11.074L10.2195 10.009C10.6409 9.555 11.0149 9.04101 11.1535 8.82001C11.8131 7.76901 11.4961 6.364 10.4466 5.686L10.1852 5.51801C9.69088 5.20001 8.98348 5.35299 8.66458 5.84799C8.56648 5.99899 8.43798 6.164 8.29538 6.328V1.64499C8.29538 1.53699 8.38288 1.45001 8.49058 1.45001H21.51C21.6177 1.45001 21.7052 1.53699 21.7052 1.64499V2.117C21.5148 2.365 21.4264 2.68901 21.4969 3.01801C21.6684 3.81301 21.6153 5.17901 21.2911 5.68201C21.0615 6.03801 20.8398 6.215 20.5073 6.479L18.806 6.84601C18.6175 6.88701 18.4537 7.00099 18.3498 7.16199C18.2455 7.32299 18.2102 7.52001 18.2508 7.70801L19.395 13.004C19.468 13.344 19.7685 13.576 20.1029 13.576C20.1531 13.576 20.2048 13.571 20.2561 13.56L21.7052 13.247V16.112C21.4636 16.102 21.2205 16.11 20.976 16.157C19.0635 16.525 17.9169 18.341 18.3092 20.382C18.6325 22.059 19.8922 23.07 21.7047 24.157V24.355ZM25.7698 23.363C25.5263 23.666 25.2567 24.003 24.975 24.362C24.5812 24.135 24.2048 23.922 23.8656 23.73C21.4607 22.367 20.0096 21.544 19.7318 20.106C19.4916 18.857 20.1299 17.794 21.249 17.579C21.3597 17.558 21.4703 17.547 21.5786 17.547C21.8414 17.547 22.1024 17.612 22.3556 17.74C22.7257 17.927 23.0103 18.215 23.1838 18.425C23.3529 18.629 23.6186 18.723 23.8791 18.674C24.139 18.624 24.3512 18.436 24.4319 18.184C24.515 17.927 24.6715 17.553 24.9489 17.24C25.2146 16.938 25.5302 16.754 25.9148 16.681C27.0242 16.467 28.0264 17.238 28.2622 18.464C28.5395 19.901 27.4992 21.202 25.7698 23.363Z" fill="#434343"/>
<path d="M18.625 3.276C18.625 2.875 18.3003 2.55099 17.9002 2.55099H12.1037C11.7031 2.55099 11.3789 2.875 11.3789 3.276C11.3789 3.676 11.7031 4 12.1037 4H17.9002C18.3007 4 18.625 3.676 18.625 3.276Z" fill="#434343"/>
<path d="M15.9059 22H14.0939C13.6934 22 13.3691 22.325 13.3691 22.725C13.3691 23.125 13.6934 23.45 14.0939 23.45H15.9059C16.306 23.45 16.6307 23.125 16.6307 22.725C16.6307 22.325 16.3065 22 15.9059 22Z" fill="#434343"/>
</svg>
