<svg width="24" height="24" viewBox="0 0 24 24" fill="none" xmlns="http://www.w3.org/2000/svg">
<path d="M9.6667 12.833H1C0.7239 12.833 0.5 12.609 0.5 12.333V1C0.5 0.724 0.7239 0.5 1 0.5H9.6667C9.9428 0.5 10.1667 0.724 10.1667 1V12.333C10.1667 12.609 9.9428 12.833 9.6667 12.833ZM9.6667 23.5H1C0.7239 23.5 0.5 23.276 0.5 23V17C0.5 16.724 0.7239 16.5 1 16.5H9.6667C9.9428 16.5 10.1667 16.724 10.1667 17V23C10.1667 23.276 9.9428 23.5 9.6667 23.5ZM23 23.5H14.3333C14.0572 23.5 13.8333 23.276 13.8333 23V11.667C13.8333 11.391 14.0572 11.167 14.3333 11.167H23C23.2761 11.167 23.5 11.391 23.5 11.667V23C23.5 23.276 23.2761 23.5 23 23.5ZM13.8333 7V1C13.8333 0.724 14.0572 0.5 14.3333 0.5H23C23.2761 0.5 23.5 0.724 23.5 1V7C23.5 7.276 23.2761 7.5 23 7.5H14.3333C14.0572 7.5 13.8333 7.276 13.8333 7Z" stroke="#434343"/>
</svg>
