<svg width="25" height="25" viewBox="0 0 25 25" fill="none" xmlns="http://www.w3.org/2000/svg">
<mask id="mask0_2_196" style="mask-type:alpha" maskUnits="userSpaceOnUse" x="0" y="0" width="25" height="25">
<path d="M1.2287 -1.3457e-05C0.554699 -1.3457e-05 0 0.562972 0 1.24797V23.748C0 24.433 0.554699 25 1.2287 25H16.8035C17.4776 25 18.0314 24.433 18.0314 23.748V21.248C18.0327 21.192 18.023 21.137 18.0029 21.085C17.9829 21.034 17.9529 20.987 17.9147 20.947C17.8765 20.907 17.8309 20.876 17.7806 20.854C17.7303 20.833 17.6762 20.822 17.6216 20.822C17.567 20.822 17.5129 20.833 17.4626 20.854C17.4123 20.876 17.3667 20.907 17.3285 20.947C17.2903 20.987 17.2603 21.034 17.2403 21.085C17.2202 21.137 17.2105 21.192 17.2118 21.248V23.748C17.2118 23.986 17.0376 24.167 16.8035 24.167H1.2287C0.994599 24.167 0.820499 23.986 0.820499 23.748V1.24797C0.820499 1.00997 0.994599 0.829973 1.2287 0.829973H13.9354V2.91597C13.9354 3.60097 14.4893 4.16399 15.1633 4.16399H17.2118V5.41698C17.2105 5.47198 17.2202 5.527 17.2403 5.579C17.2603 5.631 17.2903 5.678 17.3285 5.717C17.3667 5.757 17.4123 5.78898 17.4626 5.80998C17.5129 5.83198 17.567 5.84297 17.6216 5.84297C17.6762 5.84297 17.7303 5.83198 17.7806 5.80998C17.8309 5.78898 17.8765 5.757 17.9147 5.717C17.9529 5.678 17.9829 5.631 18.0029 5.579C18.023 5.527 18.0327 5.47198 18.0314 5.41698V3.74898C18.0323 3.63898 17.9899 3.533 17.9138 3.454L14.6342 0.119982C14.5568 0.0419817 14.4523 -0.00101346 14.3437 -1.3457e-05H1.2287ZM14.7519 1.41899L16.6314 3.33098H15.1633C14.9292 3.33098 14.7519 3.15397 14.7519 2.91597V1.41899ZM5.7362 3.33098C5.6816 3.32998 5.6273 3.33997 5.5765 3.35997C5.5257 3.37997 5.4794 3.411 5.4403 3.45C5.4012 3.488 5.3702 3.53499 5.349 3.58599C5.3278 3.63699 5.3169 3.69197 5.3169 3.74797C5.3169 3.80297 5.3278 3.85798 5.349 3.90898C5.3702 3.96098 5.4012 4.00698 5.4403 4.04598C5.4794 4.08398 5.5257 4.115 5.5765 4.135C5.6273 4.156 5.6816 4.16599 5.7362 4.16399H11.8838C11.9384 4.16599 11.9927 4.156 12.0435 4.135C12.0943 4.115 12.1406 4.08398 12.1797 4.04598C12.2188 4.00698 12.2498 3.96098 12.271 3.90898C12.2922 3.85798 12.3031 3.80297 12.3031 3.74797C12.3031 3.69197 12.2922 3.63699 12.271 3.58599C12.2498 3.53499 12.2188 3.488 12.1797 3.45C12.1406 3.411 12.0943 3.37997 12.0435 3.35997C11.9927 3.33997 11.9384 3.32998 11.8838 3.33098H5.7362ZM2.8681 5.83199C2.8135 5.83099 2.7593 5.83998 2.7085 5.86098C2.6577 5.88098 2.6115 5.91198 2.5724 5.95098C2.5334 5.98898 2.5024 6.03599 2.4812 6.08699C2.4601 6.13799 2.4492 6.19297 2.4492 6.24797C2.4492 6.30397 2.4601 6.35899 2.4812 6.40999C2.5024 6.46099 2.5334 6.50798 2.5724 6.54598C2.6115 6.58498 2.6577 6.61597 2.7085 6.63597C2.7593 6.65597 2.8135 6.666 2.8681 6.665H7.7878C7.8424 6.666 7.8966 6.65597 7.9474 6.63597C7.9982 6.61597 8.0444 6.58498 8.0835 6.54598C8.1225 6.50798 8.1535 6.46099 8.1746 6.40999C8.1958 6.35899 8.2067 6.30397 8.2067 6.24797C8.2067 6.19297 8.1958 6.13799 8.1746 6.08699C8.1535 6.03599 8.1225 5.98898 8.0835 5.95098C8.0444 5.91198 7.9982 5.88098 7.9474 5.86098C7.8966 5.83998 7.8424 5.83099 7.7878 5.83199H2.8681ZM13.524 5.83199C9.4546 5.83199 6.1476 9.19297 6.1476 13.33C6.1476 17.467 9.4546 20.833 13.524 20.833C15.0969 20.833 16.5524 20.325 17.7505 19.469L19.0921 20.833L18.9728 20.955C18.8965 21.033 18.8536 21.139 18.8536 21.249C18.8536 21.359 18.8965 21.465 18.9728 21.543L21.8289 24.446C22.552 25.181 23.7345 25.181 24.4576 24.446C25.1808 23.711 25.1808 22.508 24.4576 21.773L21.6015 18.87C21.5577 18.825 21.5045 18.791 21.4458 18.77C21.3871 18.749 21.3246 18.742 21.2629 18.75C21.1711 18.761 21.0857 18.803 21.0204 18.87L20.9003 18.992L20.3896 18.473C20.0057 18.016 19.3617 18.67 19.8117 19.06L20.3232 19.58L19.6724 20.242L18.3972 18.947C19.928 17.571 20.8995 15.567 20.8995 13.33C20.8995 9.19297 17.5934 5.83199 13.524 5.83199ZM13.524 6.665C17.1504 6.665 20.0831 9.64297 20.0831 13.33C20.0831 17.017 17.1504 19.998 13.524 19.998C9.8975 19.998 6.9681 17.017 6.9681 13.33C6.9681 9.64297 9.8975 6.665 13.524 6.665ZM2.8473 8.33299C2.28 8.36199 2.322 9.19497 2.8681 9.16597H5.328C5.8745 9.16597 5.8745 8.33299 5.328 8.33299H2.8473ZM15.1633 8.74797C13.5838 8.74797 12.2953 10.061 12.2953 11.667C12.2956 11.861 12.318 12.074 12.3561 12.263L9.5456 15.12C9.4683 15.199 9.4241 15.305 9.424 15.416V17.083C9.4248 17.313 9.6098 17.498 9.8362 17.498H11.4756C11.5846 17.497 11.6893 17.453 11.7661 17.375L12.1744 16.96C12.2518 16.882 12.2952 16.775 12.2953 16.664V16.249H12.7043C12.9319 16.25 13.1166 16.062 13.1157 15.831V15.416H13.524C13.633 15.416 13.7377 15.372 13.8146 15.293L14.5734 14.521C14.7608 14.56 14.9716 14.582 15.1633 14.582C16.7429 14.582 18.0314 13.273 18.0314 11.667C18.0314 10.061 16.7429 8.74797 15.1633 8.74797ZM15.1633 9.58098C16.2999 9.58098 17.2118 10.511 17.2118 11.667C17.2118 12.822 16.2999 13.748 15.1633 13.748C14.9619 13.748 14.7629 13.719 14.5702 13.66C14.4251 13.613 14.2668 13.652 14.1588 13.761L13.3543 14.582H12.7035C12.4783 14.583 12.2961 14.769 12.2953 14.998V15.416H11.8838C11.6586 15.417 11.4764 15.602 11.4756 15.831V16.493L11.3059 16.664H10.2444V15.588L13.1005 12.685C13.2075 12.576 13.2466 12.416 13.203 12.269C13.1442 12.073 13.1161 11.868 13.1157 11.663C13.1174 10.509 14.0278 9.58098 15.1633 9.58098ZM15.1633 10.414C14.4892 10.414 13.9354 10.981 13.9354 11.667C13.9354 12.352 14.4892 12.915 15.1633 12.915C15.8375 12.915 16.3921 12.352 16.3921 11.667C16.3921 10.981 15.8375 10.414 15.1633 10.414ZM2.8473 10.833C2.28 10.862 2.322 11.696 2.8681 11.667H4.5083C5.0549 11.667 5.0549 10.833 4.5083 10.833H2.8473ZM15.1633 11.248C15.3945 11.248 15.5716 11.432 15.5716 11.667C15.5716 11.902 15.3945 12.082 15.1633 12.082C14.9321 12.082 14.7519 11.902 14.7519 11.667C14.7519 11.432 14.9321 11.248 15.1633 11.248ZM2.8681 13.33C2.8135 13.329 2.7592 13.339 2.7084 13.359C2.6576 13.379 2.6113 13.41 2.5722 13.449C2.5332 13.488 2.5021 13.534 2.4809 13.585C2.4597 13.636 2.4488 13.691 2.4488 13.747C2.4488 13.802 2.4597 13.857 2.4809 13.908C2.5021 13.96 2.5332 14.006 2.5722 14.045C2.6113 14.084 2.6576 14.114 2.7084 14.134C2.7592 14.155 2.8135 14.165 2.8681 14.163H4.0968C4.1514 14.165 4.2057 14.155 4.2565 14.134C4.3073 14.114 4.3536 14.084 4.3927 14.045C4.4318 14.006 4.4628 13.96 4.484 13.908C4.5052 13.857 4.5161 13.802 4.5161 13.747C4.5161 13.691 4.5052 13.636 4.484 13.585C4.4628 13.534 4.4318 13.488 4.3927 13.449C4.3536 13.41 4.3073 13.379 4.2565 13.359C4.2057 13.339 4.1514 13.329 4.0968 13.33H2.8681ZM2.8681 15.831C2.8135 15.83 2.7592 15.839 2.7084 15.86C2.6576 15.88 2.6113 15.911 2.5722 15.95C2.5332 15.988 2.5021 16.035 2.4809 16.086C2.4597 16.137 2.4488 16.192 2.4488 16.248C2.4488 16.303 2.4597 16.358 2.4809 16.409C2.5021 16.46 2.5332 16.507 2.5722 16.546C2.6113 16.584 2.6576 16.615 2.7084 16.635C2.7592 16.656 2.8135 16.665 2.8681 16.664H4.9165C4.9711 16.665 5.0254 16.656 5.0762 16.635C5.127 16.615 5.1733 16.584 5.2124 16.546C5.2514 16.507 5.2825 16.46 5.3037 16.409C5.3249 16.358 5.3358 16.303 5.3358 16.248C5.3358 16.192 5.3249 16.137 5.3037 16.086C5.2825 16.035 5.2514 15.988 5.2124 15.95C5.1733 15.911 5.127 15.88 5.0762 15.86C5.0254 15.839 4.9711 15.83 4.9165 15.831H2.8681ZM2.8681 18.332C2.8135 18.331 2.7593 18.34 2.7085 18.361C2.6577 18.381 2.6115 18.412 2.5724 18.45C2.5334 18.489 2.5024 18.536 2.4812 18.587C2.4601 18.638 2.4492 18.693 2.4492 18.748C2.4492 18.804 2.4601 18.859 2.4812 18.91C2.5024 18.961 2.5334 19.007 2.5724 19.046C2.6115 19.085 2.6577 19.116 2.7085 19.136C2.7593 19.156 2.8135 19.166 2.8681 19.165H6.5559C6.6104 19.166 6.6647 19.156 6.7155 19.136C6.7663 19.116 6.8125 19.085 6.8515 19.046C6.8906 19.007 6.9216 18.961 6.9427 18.91C6.9639 18.859 6.9748 18.804 6.9748 18.748C6.9748 18.693 6.9639 18.638 6.9427 18.587C6.9216 18.536 6.8906 18.489 6.8515 18.45C6.8125 18.412 6.7663 18.381 6.7155 18.361C6.6647 18.34 6.6104 18.331 6.5559 18.332H2.8681ZM21.311 19.756L23.8765 22.364C24.2886 22.783 24.2886 23.44 23.8765 23.859C23.4644 24.278 22.8213 24.278 22.4092 23.859L19.8405 21.248L21.311 19.756ZM2.8273 20.832C2.8267 20.832 2.8262 20.832 2.8256 20.833C2.7186 20.841 2.6189 20.891 2.5479 20.973C2.4769 21.054 2.4402 21.161 2.4458 21.27C2.4513 21.379 2.4986 21.482 2.5776 21.556C2.6565 21.63 2.7608 21.669 2.8681 21.666H4.5082C4.5628 21.667 4.6171 21.657 4.6678 21.637C4.7186 21.616 4.7649 21.586 4.8039 21.547C4.8429 21.508 4.8739 21.462 4.8951 21.411C4.9162 21.36 4.9271 21.305 4.9271 21.249C4.9271 21.194 4.9162 21.139 4.8951 21.088C4.8739 21.036 4.8429 20.99 4.8039 20.951C4.7649 20.912 4.7186 20.882 4.6678 20.862C4.6171 20.841 4.5628 20.831 4.5082 20.833H2.8681C2.8545 20.832 2.8409 20.831 2.8273 20.832ZM6.1068 20.832C6.1063 20.832 6.1057 20.832 6.1052 20.833C5.9981 20.841 5.8984 20.891 5.8274 20.973C5.7564 21.054 5.7198 21.161 5.7253 21.27C5.7309 21.379 5.7782 21.482 5.8571 21.556C5.936 21.63 6.0403 21.669 6.1476 21.666H10.2444C10.299 21.667 10.3532 21.657 10.404 21.637C10.4548 21.616 10.501 21.586 10.5401 21.547C10.5791 21.508 10.6101 21.462 10.6313 21.411C10.6524 21.36 10.6633 21.305 10.6633 21.249C10.6633 21.194 10.6524 21.139 10.6313 21.088C10.6101 21.036 10.5791 20.99 10.5401 20.951C10.501 20.912 10.4548 20.882 10.404 20.862C10.3532 20.841 10.299 20.831 10.2444 20.833H6.1476C6.134 20.832 6.1204 20.831 6.1068 20.832Z" fill="white"/>
</mask>
<g mask="url(#mask0_2_196)">
<path d="M1.2287 -1.3457e-05C0.554699 -1.3457e-05 0 0.562972 0 1.24797V23.748C0 24.433 0.554699 25 1.2287 25H16.8035C17.4776 25 18.0314 24.433 18.0314 23.748V21.248C18.0327 21.192 18.023 21.137 18.0029 21.085C17.9829 21.034 17.9529 20.987 17.9147 20.947C17.8765 20.907 17.8309 20.876 17.7806 20.854C17.7303 20.833 17.6762 20.822 17.6216 20.822C17.567 20.822 17.5129 20.833 17.4626 20.854C17.4123 20.876 17.3667 20.907 17.3285 20.947C17.2903 20.987 17.2603 21.034 17.2403 21.085C17.2202 21.137 17.2105 21.192 17.2118 21.248V23.748C17.2118 23.986 17.0376 24.167 16.8035 24.167H1.2287C0.994599 24.167 0.820499 23.986 0.820499 23.748V1.24797C0.820499 1.00997 0.994599 0.829973 1.2287 0.829973H13.9354V2.91597C13.9354 3.60097 14.4893 4.16399 15.1633 4.16399H17.2118V5.41698C17.2105 5.47198 17.2202 5.527 17.2403 5.579C17.2603 5.631 17.2903 5.678 17.3285 5.717C17.3667 5.757 17.4123 5.78898 17.4626 5.80998C17.5129 5.83198 17.567 5.84297 17.6216 5.84297C17.6762 5.84297 17.7303 5.83198 17.7806 5.80998C17.8309 5.78898 17.8765 5.757 17.9147 5.717C17.9529 5.678 17.9829 5.631 18.0029 5.579C18.023 5.527 18.0327 5.47198 18.0314 5.41698V3.74898C18.0323 3.63898 17.9899 3.533 17.9138 3.454L14.6342 0.119982C14.5568 0.0419817 14.4523 -0.00101346 14.3437 -1.3457e-05H1.2287ZM14.7519 1.41899L16.6314 3.33098H15.1633C14.9292 3.33098 14.7519 3.15397 14.7519 2.91597V1.41899ZM5.7362 3.33098C5.6816 3.32998 5.6273 3.33997 5.5765 3.35997C5.5257 3.37997 5.4794 3.411 5.4403 3.45C5.4012 3.488 5.3702 3.53499 5.349 3.58599C5.3278 3.63699 5.3169 3.69197 5.3169 3.74797C5.3169 3.80297 5.3278 3.85798 5.349 3.90898C5.3702 3.96098 5.4012 4.00698 5.4403 4.04598C5.4794 4.08398 5.5257 4.115 5.5765 4.135C5.6273 4.156 5.6816 4.16599 5.7362 4.16399H11.8838C11.9384 4.16599 11.9927 4.156 12.0435 4.135C12.0943 4.115 12.1406 4.08398 12.1797 4.04598C12.2188 4.00698 12.2498 3.96098 12.271 3.90898C12.2922 3.85798 12.3031 3.80297 12.3031 3.74797C12.3031 3.69197 12.2922 3.63699 12.271 3.58599C12.2498 3.53499 12.2188 3.488 12.1797 3.45C12.1406 3.411 12.0943 3.37997 12.0435 3.35997C11.9927 3.33997 11.9384 3.32998 11.8838 3.33098H5.7362ZM2.8681 5.83199C2.8135 5.83099 2.7593 5.83998 2.7085 5.86098C2.6577 5.88098 2.6115 5.91198 2.5724 5.95098C2.5334 5.98898 2.5024 6.03599 2.4812 6.08699C2.4601 6.13799 2.4492 6.19297 2.4492 6.24797C2.4492 6.30397 2.4601 6.35899 2.4812 6.40999C2.5024 6.46099 2.5334 6.50798 2.5724 6.54598C2.6115 6.58498 2.6577 6.61597 2.7085 6.63597C2.7593 6.65597 2.8135 6.666 2.8681 6.665H7.7878C7.8424 6.666 7.8966 6.65597 7.9474 6.63597C7.9982 6.61597 8.0444 6.58498 8.0835 6.54598C8.1225 6.50798 8.1535 6.46099 8.1746 6.40999C8.1958 6.35899 8.2067 6.30397 8.2067 6.24797C8.2067 6.19297 8.1958 6.13799 8.1746 6.08699C8.1535 6.03599 8.1225 5.98898 8.0835 5.95098C8.0444 5.91198 7.9982 5.88098 7.9474 5.86098C7.8966 5.83998 7.8424 5.83099 7.7878 5.83199H2.8681ZM13.524 5.83199C9.4546 5.83199 6.1476 9.19297 6.1476 13.33C6.1476 17.467 9.4546 20.833 13.524 20.833C15.0969 20.833 16.5524 20.325 17.7505 19.469L19.0921 20.833L18.9728 20.955C18.8965 21.033 18.8536 21.139 18.8536 21.249C18.8536 21.359 18.8965 21.465 18.9728 21.543L21.8289 24.446C22.552 25.181 23.7345 25.181 24.4576 24.446C25.1808 23.711 25.1808 22.508 24.4576 21.773L21.6015 18.87C21.5577 18.825 21.5045 18.791 21.4458 18.77C21.3871 18.749 21.3246 18.742 21.2629 18.75C21.1711 18.761 21.0857 18.803 21.0204 18.87L20.9003 18.992L20.3896 18.473C20.0057 18.016 19.3617 18.67 19.8117 19.06L20.3232 19.58L19.6724 20.242L18.3972 18.947C19.928 17.571 20.8995 15.567 20.8995 13.33C20.8995 9.19297 17.5934 5.83199 13.524 5.83199ZM13.524 6.665C17.1504 6.665 20.0831 9.64297 20.0831 13.33C20.0831 17.017 17.1504 19.998 13.524 19.998C9.8975 19.998 6.9681 17.017 6.9681 13.33C6.9681 9.64297 9.8975 6.665 13.524 6.665ZM2.8473 8.33299C2.28 8.36199 2.322 9.19497 2.8681 9.16597H5.328C5.8745 9.16597 5.8745 8.33299 5.328 8.33299H2.8473ZM15.1633 8.74797C13.5838 8.74797 12.2953 10.061 12.2953 11.667C12.2956 11.861 12.318 12.074 12.3561 12.263L9.5456 15.12C9.4683 15.199 9.4241 15.305 9.424 15.416V17.083C9.4248 17.313 9.6098 17.498 9.8362 17.498H11.4756C11.5846 17.497 11.6893 17.453 11.7661 17.375L12.1744 16.96C12.2518 16.882 12.2952 16.775 12.2953 16.664V16.249H12.7043C12.9319 16.25 13.1166 16.062 13.1157 15.831V15.416H13.524C13.633 15.416 13.7377 15.372 13.8146 15.293L14.5734 14.521C14.7608 14.56 14.9716 14.582 15.1633 14.582C16.7429 14.582 18.0314 13.273 18.0314 11.667C18.0314 10.061 16.7429 8.74797 15.1633 8.74797ZM15.1633 9.58098C16.2999 9.58098 17.2118 10.511 17.2118 11.667C17.2118 12.822 16.2999 13.748 15.1633 13.748C14.9619 13.748 14.7629 13.719 14.5702 13.66C14.4251 13.613 14.2668 13.652 14.1588 13.761L13.3543 14.582H12.7035C12.4783 14.583 12.2961 14.769 12.2953 14.998V15.416H11.8838C11.6586 15.417 11.4764 15.602 11.4756 15.831V16.493L11.3059 16.664H10.2444V15.588L13.1005 12.685C13.2075 12.576 13.2466 12.416 13.203 12.269C13.1442 12.073 13.1161 11.868 13.1157 11.663C13.1174 10.509 14.0278 9.58098 15.1633 9.58098ZM15.1633 10.414C14.4892 10.414 13.9354 10.981 13.9354 11.667C13.9354 12.352 14.4892 12.915 15.1633 12.915C15.8375 12.915 16.3921 12.352 16.3921 11.667C16.3921 10.981 15.8375 10.414 15.1633 10.414ZM2.8473 10.833C2.28 10.862 2.322 11.696 2.8681 11.667H4.5083C5.0549 11.667 5.0549 10.833 4.5083 10.833H2.8473ZM15.1633 11.248C15.3945 11.248 15.5716 11.432 15.5716 11.667C15.5716 11.902 15.3945 12.082 15.1633 12.082C14.9321 12.082 14.7519 11.902 14.7519 11.667C14.7519 11.432 14.9321 11.248 15.1633 11.248ZM2.8681 13.33C2.8135 13.329 2.7592 13.339 2.7084 13.359C2.6576 13.379 2.6113 13.41 2.5722 13.449C2.5332 13.488 2.5021 13.534 2.4809 13.585C2.4597 13.636 2.4488 13.691 2.4488 13.747C2.4488 13.802 2.4597 13.857 2.4809 13.908C2.5021 13.96 2.5332 14.006 2.5722 14.045C2.6113 14.084 2.6576 14.114 2.7084 14.134C2.7592 14.155 2.8135 14.165 2.8681 14.163H4.0968C4.1514 14.165 4.2057 14.155 4.2565 14.134C4.3073 14.114 4.3536 14.084 4.3927 14.045C4.4318 14.006 4.4628 13.96 4.484 13.908C4.5052 13.857 4.5161 13.802 4.5161 13.747C4.5161 13.691 4.5052 13.636 4.484 13.585C4.4628 13.534 4.4318 13.488 4.3927 13.449C4.3536 13.41 4.3073 13.379 4.2565 13.359C4.2057 13.339 4.1514 13.329 4.0968 13.33H2.8681ZM2.8681 15.831C2.8135 15.83 2.7592 15.839 2.7084 15.86C2.6576 15.88 2.6113 15.911 2.5722 15.95C2.5332 15.988 2.5021 16.035 2.4809 16.086C2.4597 16.137 2.4488 16.192 2.4488 16.248C2.4488 16.303 2.4597 16.358 2.4809 16.409C2.5021 16.46 2.5332 16.507 2.5722 16.546C2.6113 16.584 2.6576 16.615 2.7084 16.635C2.7592 16.656 2.8135 16.665 2.8681 16.664H4.9165C4.9711 16.665 5.0254 16.656 5.0762 16.635C5.127 16.615 5.1733 16.584 5.2124 16.546C5.2514 16.507 5.2825 16.46 5.3037 16.409C5.3249 16.358 5.3358 16.303 5.3358 16.248C5.3358 16.192 5.3249 16.137 5.3037 16.086C5.2825 16.035 5.2514 15.988 5.2124 15.95C5.1733 15.911 5.127 15.88 5.0762 15.86C5.0254 15.839 4.9711 15.83 4.9165 15.831H2.8681ZM2.8681 18.332C2.8135 18.331 2.7593 18.34 2.7085 18.361C2.6577 18.381 2.6115 18.412 2.5724 18.45C2.5334 18.489 2.5024 18.536 2.4812 18.587C2.4601 18.638 2.4492 18.693 2.4492 18.748C2.4492 18.804 2.4601 18.859 2.4812 18.91C2.5024 18.961 2.5334 19.007 2.5724 19.046C2.6115 19.085 2.6577 19.116 2.7085 19.136C2.7593 19.156 2.8135 19.166 2.8681 19.165H6.5559C6.6104 19.166 6.6647 19.156 6.7155 19.136C6.7663 19.116 6.8125 19.085 6.8515 19.046C6.8906 19.007 6.9216 18.961 6.9427 18.91C6.9639 18.859 6.9748 18.804 6.9748 18.748C6.9748 18.693 6.9639 18.638 6.9427 18.587C6.9216 18.536 6.8906 18.489 6.8515 18.45C6.8125 18.412 6.7663 18.381 6.7155 18.361C6.6647 18.34 6.6104 18.331 6.5559 18.332H2.8681ZM21.311 19.756L23.8765 22.364C24.2886 22.783 24.2886 23.44 23.8765 23.859C23.4644 24.278 22.8213 24.278 22.4092 23.859L19.8405 21.248L21.311 19.756ZM2.8273 20.832C2.8267 20.832 2.8262 20.832 2.8256 20.833C2.7186 20.841 2.6189 20.891 2.5479 20.973C2.4769 21.054 2.4402 21.161 2.4458 21.27C2.4513 21.379 2.4986 21.482 2.5776 21.556C2.6565 21.63 2.7608 21.669 2.8681 21.666H4.5082C4.5628 21.667 4.6171 21.657 4.6678 21.637C4.7186 21.616 4.7649 21.586 4.8039 21.547C4.8429 21.508 4.8739 21.462 4.8951 21.411C4.9162 21.36 4.9271 21.305 4.9271 21.249C4.9271 21.194 4.9162 21.139 4.8951 21.088C4.8739 21.036 4.8429 20.99 4.8039 20.951C4.7649 20.912 4.7186 20.882 4.6678 20.862C4.6171 20.841 4.5628 20.831 4.5082 20.833H2.8681C2.8545 20.832 2.8409 20.831 2.8273 20.832ZM6.1068 20.832C6.1063 20.832 6.1057 20.832 6.1052 20.833C5.9981 20.841 5.8984 20.891 5.8274 20.973C5.7564 21.054 5.7198 21.161 5.7253 21.27C5.7309 21.379 5.7782 21.482 5.8571 21.556C5.936 21.63 6.0403 21.669 6.1476 21.666H10.2444C10.299 21.667 10.3532 21.657 10.404 21.637C10.4548 21.616 10.501 21.586 10.5401 21.547C10.5791 21.508 10.6101 21.462 10.6313 21.411C10.6524 21.36 10.6633 21.305 10.6633 21.249C10.6633 21.194 10.6524 21.139 10.6313 21.088C10.6101 21.036 10.5791 20.99 10.5401 20.951C10.501 20.912 10.4548 20.882 10.404 20.862C10.3532 20.841 10.299 20.831 10.2444 20.833H6.1476C6.134 20.832 6.1204 20.831 6.1068 20.832Z" fill="#434343" stroke="#434343" stroke-width="4"/>
</g>
</svg>
